<svg xmlns="http://www.w3.org/2000/svg" xmlns:xlink="http://www.w3.org/1999/xlink" viewBox="0 0 48 48" preserveAspectRatio="xMidYMid" width="48" height="48" style="display:block;shape-rendering:auto;background-position-x:0%;background-position-y:0%;background-size:auto;background-origin:padding-box;background-clip:border-box;background:scroll rgba(253, 253, 253, 0) none  repeat;width:48px;height:48px;;animation:none"><style type="text/css">.ld-text text {
    text-anchor: middle;
    dominant-baseline: middle;
    font-size: 59px;
    opacity: 0;
    user-select: none;
    pointer-events: none;
  }</style>


<g class="ld-text" style="transform-origin:24px 24px;transform:matrix(1, 0, 0, 1, 0, 0);;animation:none"><g transform="matrix(1,0,0,1,24,24)" style="transform:matrix(1, 0, 0, 1, 24, 24);;animation:none"><g transform="matrix(0.7375000715255737,0,0,0.7375000715255737,0,0)" style="transform:matrix(0.7375, 0, 0, 0.7375, 0, 0);;animation:none"><g class="path" style="animation-duration:1s;animation-timing-function:linear;animation-delay:0s;animation-iteration-count:infinite;animation-direction:normal;animation-fill-mode:forwards;animation-play-state:paused;animation-name:animate-tmst1ro1v9e;animation-timeline:auto;animation-range-start:normal;animation-range-end:normal;transform-box:view-box;transform-origin:1.04px 0px;transform:matrix(1, 0, 0, 1, 0, 0);;animation:none"><path d="M27.84 11.68L27.84 11.68L28.16 9.20Q28.16 5.52 25.28 4.48L25.28 4.48Q23.04 3.76 21.84 3.76L21.84 3.76L21.76 3.76Q19.36 3.76 17.60 4.52Q15.84 5.28 15.04 6.40L15.04 6.40Q13.36 8.72 13.12 11.28L13.12 11.28Q13.12 14.32 15.84 16.52Q18.56 18.72 22.44 20.36Q26.32 22 30.20 23.92Q34.08 25.84 36.80 29.44Q39.52 33.04 39.52 38.08L39.52 38.08Q39.52 47.92 33.32 52.80Q27.12 57.68 19.24 57.68Q11.36 57.68 6.20 54.12Q1.04 50.56 1.04 44.56L1.04 44.56L1.04 44.48Q1.04 41.52 1.96 39.32Q2.88 37.12 4.16 36.08L4.16 36.08Q6.80 33.92 8.96 33.76L8.96 33.76L9.92 33.68Q12.16 33.68 14 34.76Q15.84 35.84 15.84 37.76L15.84 37.76Q15.84 38.72 14.80 39.36Q13.76 40 13 41.28Q12.24 42.56 12.16 43.44L12.16 43.44L12 44.32Q12 49.20 16.48 50.80L16.48 50.80Q18.08 51.36 19.04 51.36L19.04 51.36Q23.44 51.36 26.12 48.72Q28.80 46.08 28.80 42L28.80 42Q28.80 37.12 24.64 34.08L24.64 34.08Q21.52 31.84 17.88 30.32Q14.24 28.80 12.96 28.16Q11.68 27.52 10.24 26.64Q8.80 25.76 7.04 24.16L7.04 24.16Q3.20 20.80 3.20 15.08Q3.20 9.36 6.32 5.44L6.32 5.44Q11.92-1.68 23.12-1.68L23.12-1.68Q29.04-1.68 33.12 0.60Q37.20 2.88 37.20 6.88L37.20 6.88Q37.20 9.76 35.56 11.68Q33.92 13.60 31.36 13.60L31.36 13.60Q30.16 13.60 29 13.12Q27.84 12.64 27.84 11.68" transform="matrix(1,0,0,1,-19.239999771118164,-28)" style="fill:rgb(81, 202, 204);transform:matrix(1, 0, 0, 1, -19.24, -28);;animation:none"></path></g></g>
<text dy="0.35em" fill="#51cacc" font-family="Aladin" font-size="59" style="fill:rgb(81, 202, 204);opacity:0;;animation:none">S</text></g></g>
<STYLE type="text/css">@keyframes animate-tmst1ro1v9e { 0.00% {animation-timing-function: cubic-bezier(0.33,0.00,0.67,0.00);transform: translate(0.00px,0.00px) rotate(0.00deg) scale(1.00, 1.00) skew(0deg, 0.00deg) ;opacity: 1.00;}50.00% {animation-timing-function: cubic-bezier(0.33,0.00,0.67,0.00);transform: translate(0.00px,0.00px) rotate(0.00deg) ;}100.00% {animation-timing-function: cubic-bezier(0.33,0.00,0.67,0.00);transform: translate(0.00px,0.00px) rotate(0.00deg) ;} }</STYLE><!-- [ldio] generated by https://loading.io --></svg>